<svg id="Capa_1" enable-background="new 0 0 512 512" height="512" viewBox="0 0 512 512" width="512" xmlns="http://www.w3.org/2000/svg"><g><g><g><path d="m249.032 157.565c-8.324-2.832-13.895-10.682-13.895-19.474v-95.812l-25.033-12.999-37.809 12.999-13.511 95.813c0 8.815-5.609 16.651-13.953 19.493-71.108 24.224-115.33 91.208-116.204 170.306l157.734 67.43 161.705-65.375c0-39.908 11.499-76.815-10.277-106.817-21.885-30.149-52.792-53.325-88.757-65.564z" fill="#b3dafe"/></g></g><g><path d="m371.552 312.25c-1.286-13.329-4.006-26.239-8.01-38.571-5.939-18.29-14.695-35.309-25.756-50.548v80.017l11.177 9.101h22.589z" fill="#8ac9fe"/></g><g><g><path d="m145.567 11.414v126.677c0 8.815-5.609 16.651-13.953 19.493-68.048 23.183-117.976 85.523-122.914 160.165-.222 3.357 61.218 32.103 61.216 32.329 0 0-34.838-24.702-34.799-25.956 2.434-77.452 53.249-142.699 123.225-166.538 8.344-2.842 13.953-10.678 13.953-19.493v-126.677z" fill="#8ac9fe"/></g></g><g><path d="m189.995 512c28.296.054 55.091-6.347 78.995-17.813 2.932-1.407 16.167-18.807 17.758-21.476 29.669-49.786 42.67-82.422 59.833-126.094 2.57-6.54 2.753-12.96 1.978-19.779-11.022-2.873.463-22.547-10.773-23.689-38.534-3.917-77.741 2.321-113.577 18.547-44.867 20.315-95.231 25.074-143.109 13.522l-45.983-11.095c-.222 3.357-3.981 8.706-4.018 12.11-1.109 100.235 55.502 173.369 155.255 174.43.59.006 3.049 1.335 3.641 1.337z" fill="#e58e82"/></g><g><path d="m35.037 327.891c.014-1.26.041-2.516.081-3.769l-26.411-6.372c-.222 3.357-.36 6.737-.398 10.142-1.115 100.827 80.853 183.915 181.686 184.108 4.646.009 9.251-.159 13.811-.492-94.82-6.903-169.836-87.133-168.769-183.617z" fill="#e06c57"/></g><g><path d="m268.99 494.185c61.174-29.344 103.415-91.858 103.415-164.239 0-7.027-.407-13.958-1.181-20.777-11.022-2.873-22.202-4.87-33.438-6.012v29.565c0 2.156-.44 4.25-1.309 6.224l-65.23 148.23c-1.004 2.281-1.747 4.63-2.257 7.009z" fill="#e06c57"/></g><g><circle cx="291.28" cy="380.734" fill="#f1cdc7" r="21.757"/></g><g><circle cx="153.718" cy="422.924" fill="#f1cdc7" r="32.636"/></g><g><circle cx="193.427" cy="252.334" fill="#d3effd" r="25.662"/></g><path d="m201.395 85.557h33.741v-15.453h-33.741c-4.267 0-7.726 3.459-7.726 7.726s3.459 7.727 7.726 7.727z" fill="#5fa7ee"/><path d="m201.395 121.397h33.741v-15.453h-33.741c-4.267 0-7.726 3.459-7.726 7.726s3.459 7.727 7.726 7.727z" fill="#5fa7ee"/><g><path d="m437.588 349.319c-2.302-5.231-3.49-10.883-3.49-16.598v-185.88h-49.379l-8.823 185.88c0 5.715-1.189 11.367-3.49 16.598l-7.504 37.101 30.574 36.504 58.439-36.504z" fill="#f6f1f1"/></g><g><path d="m354.926 395.322 9.976-8.901 16.327-37.101c2.302-5.231 3.49-10.883 3.49-16.598v-185.88h-21.179v185.88c0 5.715-1.189 11.367-3.49 16.598l-16.327 37.101 7.376 9.83z" fill="#e2dfe2"/></g><g><path d="m453.915 386.421h-89.013l-57.879 111.128c-2.996 6.809 6.236 14.451 13.675 14.451h172.691c7.439 0 12.425-7.643 9.429-14.451z" fill="#88f2a9"/></g><g><path d="m315.999 497.549 48.903-111.128h-21.179l-48.903 111.128c-2.996 6.809 1.991 14.451 9.429 14.451h21.179c-7.439 0-12.425-7.643-9.429-14.451z" fill="#77d192"/></g><g><path d="m449.847 154.118h-82.735c-5.523 0-10-4.477-10-10v-22.279c0-5.523 4.477-10 10-10h82.735c5.523 0 10 4.477 10 10v22.279c0 5.523-4.477 10-10 10z" fill="#d3ced5"/></g><g><path d="m362.639 143.816v-21.675c0-5.69 4.612-10.302 10.302-10.302h-24.848c-5.69 0-10.302 4.612-10.302 10.302v21.675c0 5.69 4.612 10.302 10.302 10.302h24.848c-5.69 0-10.302-4.612-10.302-10.302z" fill="#c3bec6"/></g><g><circle cx="384.719" cy="455.561" fill="#d3fae3" r="21.757"/></g><g fill="#d3ced5"><path d="m398.463 193.087c0 4.267 3.459 7.726 7.726 7.726h27.908v-15.453h-27.907c-4.268 0-7.727 3.46-7.727 7.727z"/><path d="m398.463 228.927c0 4.267 3.459 7.726 7.726 7.726h27.908v-15.453h-27.907c-4.268 0-7.727 3.46-7.727 7.727z"/><path d="m398.463 264.767c0 4.267 3.459 7.726 7.726 7.726h27.908v-15.453h-27.907c-4.268 0-7.727 3.46-7.727 7.727z"/></g><g><path d="m249.319 42.279h-101.15c-5.69 0-9.512-4.612-9.512-10.302v-21.675c0-5.69 3.822-10.302 9.512-10.302h101.15c5.69 0 10.302 4.612 10.302 10.302v21.675c0 5.689-4.612 10.302-10.302 10.302z" fill="#5fa7ee"/></g><g><path d="m145.93 31.977v-21.675c0-5.69 4.612-10.302 10.302-10.302h-24.848c-5.69 0-10.302 4.612-10.302 10.302v21.675c0 5.69 4.612 10.302 10.302 10.302h24.848c-5.69 0-10.302-4.613-10.302-10.302z" fill="#518fcc"/></g></g></svg>